<svg height="22" viewBox="0 0 24 22" width="24" xmlns="http://www.w3.org/2000/svg"><g fill="#342aa4" fill-rule="evenodd"><path d="m9.33516078 7.43315294c-.18419607-.15270588-.45552941-.12768627-.60780392.05521569-.15270588.18333333-.12768627.45552941.05521569.60780392l2.58823525 2.15686275c.079804.0664314.1781569.1000784.2760785.1000784.0983529 0 .1962745-.033647.2765098-.1000784l2.5882353-2.15686275c.1829019-.15227451.2074902-.42447059.0552157-.60780392-.1531373-.18290196-.4240393-.20792157-.607804-.05521569l-1.8807843 1.56760784v-8.56921568c0-.23854902-.1928235-.43137255-.4313725-.43137255-.2381177 0-.4313726.19282353-.4313726.43137255v8.56921568z"/><path d="m20.7058824 20.2745098h-18.11764711c-.47580392 0-.86274509-.3869412-.86274509-.8627451v-6.4705882h5.60784313v.4313725 1.5098039c0 1.0702353.96756863 1.9411765 2.15686275 1.9411765h4.31372552c1.1892941 0 2.1568627-.8709412 2.1568627-1.9411765v-1.5098039-.4313725h5.6078432v6.4705882c0 .4758039-.3869412.8627451-.8627451.8627451m2.5865098-7.781098c-.0004314-.032353-.0056079-.0647059-.0094902-.0974902-.003451-.0250196-.0056079-.0504706-.0112157-.0746275-.0051765-.0258823-.0150981-.0509019-.0228628-.0759216-.0099215-.030196-.0189804-.0603921-.0319215-.0884313-.0025883-.0056079-.003451-.0112157-.0056079-.0163922l-4.1161568-8.68956861h-4.4284706c-.4762353 0-.8627451.38650981-.8627451.8627451s.3865098.8627451.8627451.8627451h3.3362353l3.2693725 6.90196081h-5.3114902c-.4758039 0-.8627451.3869411-.8627451.8627451v.4313725 1.5098039c0 .5948628-.5806274 1.0784314-1.2941176 1.0784314h-4.31372552c-.7134902 0-1.29411765-.4835686-1.29411765-1.0784314v-1.5098039-.4313725c0-.475804-.38694118-.8627451-.8627451-.8627451h-5.31149019l3.26937255-6.90196081h3.33623529c.47623529 0 .8627451-.38650981.8627451-.8627451s-.38650981-.8627451-.8627451-.8627451h-4.42847059l-4.11615686 8.68956861c-.00215686.0051765-.00301961.0107843-.00560784.0163922-.01294118.0280392-.022.0582353-.03192157.0884313-.00776471.0250197-.01768628.0500393-.02286275.0759216-.00560784.0241569-.0077647.0500392-.01121568.0746275-.00388236.0327843-.00905883.0651372-.0094902.0974902 0 .0056078-.00172549.0107843-.00172549.0163921v6.9019608c0 1.4274118 1.16082353 2.5882353 2.58823529 2.5882353h18.11764711c1.4274117 0 2.5882352-1.1608235 2.5882352-2.5882353v-6.9019608c0-.0056078-.0017254-.0107843-.0017254-.0163921"/></g></svg>