<svg height="22" viewBox="0 0 19 22" width="19" xmlns="http://www.w3.org/2000/svg"><g fill="#342aa4" fill-rule="evenodd"><path d="m17.1111111 19.5555556c0 .4493703-.3654444.8148148-.8148148.8148148h-13.85185186c-.44937037 0-.81481481-.3654445-.81481481-.8148148v-14.66666671c0-.44937037.36544444-.81481482.81481481-.81481482h3.33462963c.16866667.473.61640741.81481482 1.14685186.81481482h5.29629627c.5304445 0 .9781852-.34181482 1.1468519-.81481482h2.9272222c.4493704 0 .8148148.36544445.8148148.81481482zm-10.59259258-16.29629634c0-.24851852.13362963-.40740741.2037037-.40740741.50518519 0 1.06088889-.43511111 1.2922963-1.01281481l.20940741-.52351852c.10429629-.26196296.45711111-.5007037.73903703-.5007037h1.22222224c.2819259 0 .6347407.23874074.739037.5007037l.2094074.52392592c.0277037.06803704.0602963.13403704.0957408.1975926h-.6367778c-.2252963 0-.4074074.18211111-.4074074.4074074 0 .2252963.1821111.40740741.4074074.40740741h1.6296296c.0248519 0 .0456297-.00977778.0692593-.01385185.0448148.00611111.090037.01385185.1344444.01385185.0700741 0 .2037037.15888889.2037037.40740741v.40740741c0 .22488889-.1825185.4074074-.4074074.4074074h-5.29629627c-.22488889 0-.40740741-.18251851-.40740741-.4074074zm9.77777778-.81481482h-3.1166667c-.1865926-.24811111-.4538518-.4074074-.7537037-.4074074-.1348518 0-.4192222-.21062963-.5353333-.50070371l-.2094074-.52392592c-.2277408-.56751852-.8848889-1.01240741-1.496-1.01240741h-1.22222224c-.61111111 0-1.26825926.44488889-1.496 1.01281481l-.2094074.52351852c-.11611112.29007408-.40048149.50070371-.53533334.50070371-.29985185 0-.56711111.15929629-.7537037.4074074h-3.52407408c-1.34811111 0-2.44444444 1.09633334-2.44444444 2.44444445v14.66666671c0 1.3481111 1.09633333 2.4444444 2.44444444 2.4444444h13.85185186c1.3481111 0 2.4444444-1.0963333 2.4444444-2.4444444v-14.66666671c0-1.34811111-1.0963333-2.44444445-2.4444444-2.44444445z"/><path d="m8.55555556 10.1851852c-.2252963 0-.40740741.1821111-.40740741.4074074v.8148148h-3.25925926v-3.25925925h2.44444444c.2252963 0 .40740741-.18211111.40740741-.40740741s-.18211111-.40740741-.40740741-.40740741h-2.85185185c-.22529629 0-.40740741.18211111-.40740741.40740741v4.07407406c0 .2252963.18211112.4074074.40740741.4074074h4.07407408c.22529629 0 .4074074-.1821111.4074074-.4074074v-1.2222222c0-.2252963-.18211111-.4074074-.4074074-.4074074"/><path d="m9.46981852 7.06953704-2.36174074 2.728-1.1162963-1.10977778c-.15929629-.1592963-.41718518-.14666667-.57607407.01262963-.1592963.1592963-.1592963.44244444 0 .60133333l1.42592592 1.47685188c.07618519.0765926.18007408.2212222.28803704.2212222h.01466667c.11285185-.4074074.21918518-.1564444.29333333-.2415926l2.64814813-3.157c.1470741-.17029629.1287408-.42655555-.0411481-.57403703-.17029633-.14748148-.42655559-.12751852-.57485188.04237037"/><path d="m14.2592593 9.77777778h-2.4444445c-.2252963 0-.4074074.18211111-.4074074.40740742 0 .2252963.1821111.4074074.4074074.4074074h2.4444445c.2252963 0 .4074074-.1821111.4074074-.4074074 0-.22529631-.1821111-.40740742-.4074074-.40740742"/><path d="m4.88888889 17.9259259h3.25925926v-3.2592592h-3.25925926zm3.66666667-4.074074h-4.07407408c-.22529629 0-.40740741.1821111-.40740741.4074074v4.074074c0 .2252963.18211112.4074074.40740741.4074074h4.07407408c.22529629 0 .4074074-.1821111.4074074-.4074074v-4.074074c0-.2252963-.18211111-.4074074-.4074074-.4074074z"/><path d="m14.2592593 15.8888889h-2.4444445c-.2252963 0-.4074074.1821111-.4074074.4074074s.1821111.4074074.4074074.4074074h2.4444445c.2252963 0 .4074074-.1821111.4074074-.4074074s-.1821111-.4074074-.4074074-.4074074"/></g></svg>