<svg height="22" viewBox="0 0 22 22" width="22" xmlns="http://www.w3.org/2000/svg"><g fill="#342aa4" fill-rule="evenodd"><path d="m10.7793992 8.1896c-1.15520003 0-2.09480003-.94-2.09480003-2.0948 0-1.1552.9396-2.0948 2.09480003-2.0948 1.1552 0 2.0948.9396 2.0948 2.0948 0 1.1548-.9396 2.0948-2.0948 2.0948m2.8948-2.0948c0-1.5964-1.2984-2.8948-2.8948-2.8948-1.59600003 0-2.89480003 1.2984-2.89480003 2.8948 0 1.596 1.2988 2.8948 2.89480003 2.8948 1.5964 0 2.8948-1.2988 2.8948-2.8948"/><path d="m16.3578792 17.78024c-.2172-.1084-.472-.1128-.6928-.0108l-4.8652 2.2452-4.86480003-2.2452c-.22-.1016-.4752-.0976-.6928.0108l-3.1996 1.6 1.8184-6.6672 2.9376-1.022c1.7 2.8124 3.59760003 4.9532 3.70280003 5.0712.076.0848.1848.1336.2984.1336.1156.0064.2248-.0492.3004-.136.104-.118 1.984-2.272 3.672-5.0908l2.9664 1.0424 1.8188 6.6688zm-10.88120003-11.618c0-2.904 2.3792-5.2664 5.30320003-5.2664 2.9236 0 5.302 2.3624 5.302 5.2664 0 .7804-.174 1.5396-.5224 2.2688-1.4388 3.2972-3.91 6.4212-4.7616 7.448-.86160003-1.0248-3.36960003-4.1516-4.81320003-7.4612-.3368-.7028-.508-1.4616-.508-2.2556zm16.09520003 14.5232-2.4-8.8c-.0692-.2536-.2584-.4572-.5064-.5444l-3.0968-1.0876c.2556-.4872.498-.9852.718-1.49.3952-.8248.5952-1.7.5952-2.6012 0-3.3452-2.7376-6.0664-6.102-6.0664-3.36520003 0-6.10320003 2.7212-6.10320003 6.0664 0 .9148.1976 1.79.5808 2.5888.2256.5168.4744 1.0272.738 1.5252l-3.0584 1.064c-.2488.0868-.4392.2904-.5088.5452l-2.4 8.8c-.0832.3044.0208.6288.2644.8292.2444.2.5828.238.8652.0968l4.456-2.228 4.85120003 2.2388c.2124.098.4576.098.67 0l4.8512-2.2388 4.456 2.228c.1136.0568.236.0845263.3576.0845263.1816 0 .3612-.0617263.5076-.1813263.2436-.2004.3476-.5248.2644-.8292z"/></g></svg>