<svg height="31" viewBox="0 0 127 31" width="127" xmlns="http://www.w3.org/2000/svg" xmlns:xlink="http://www.w3.org/1999/xlink"><linearGradient id="a"><stop offset="0" stop-color="#6a5fdd"/><stop offset="1" stop-color="#241d8c"/></linearGradient><linearGradient id="b" x1="67.452373%" x2="-6.403408%" xlink:href="#a" y1="0%" y2="123.069803%"/><linearGradient id="c" x1="55.265819%" x2="32.981675%" xlink:href="#a" y1="0%" y2="123.069803%"/><linearGradient id="d" x1="67.45452%" x2="-6.410347%" xlink:href="#a" y1="0%" y2="123.069803%"/><linearGradient id="e" x1="55.265785%" x2="32.981785%" xlink:href="#a" y1="0%" y2="123.069803%"/><g fill="none" fill-rule="evenodd"><g transform="translate(0 .5)"><path d="m9.76683698 4.28405534c0 1.44022081-1.14399998 2.60773329-2.55482853 2.60773329s-2.55451424-1.16751248-2.55451424-2.60773329 1.14368569-2.60805412 2.55451424-2.60805412 2.55482853 1.16783331 2.55482853 2.60805412" fill="url(#b)"/><path d="m9.2211427 26.0866371c3.2550571-4.8972 6.9881427-13.669104 4.2579428-26.0866371 0 0-.7332286 14.4127956-13.4790855 9.05937068 0 0 9.42259984 8.08467902 6.4720856 17.74689552l3.42257137-6.513879s-.35137142 3.0081332-.67351427 5.7942499" fill="url(#c)"/><path d="m21.0274111 4.28405534c0 1.44022081 1.144 2.60773329 2.5548285 2.60773329s2.5548285-1.16751248 2.5548285-2.60773329-1.144-2.60805412-2.5548285-2.60805412-2.5548285 1.16783331-2.5548285 2.60805412" fill="url(#d)"/><path d="m21.5734196 26.0866371c-3.2550571-4.8972-6.988457-13.669104-4.258257-26.0866371 0 0 .7335428 14.4127956 13.4790854 9.05937068 0 0-9.4225998 8.08467902-6.4720856 17.74689552l-3.4225713-6.513879s.3516857 3.0081332.6738285 5.7942499" fill="url(#e)"/></g><path d="m38.984375 24.5v-8.3662109h8.5566406v8.3662109h3.046875v-18.56054688h-3.046875v7.59179688h-8.5566406v-7.59179688h-3.0341797v18.56054688zm22.0556641.2539062c.9563802 0 1.8069661-.0719401 2.5517578-.2158203.7447916-.1438802 1.4811198-.3893229 2.2089843-.7363281v-2.4248047c-.8209635.3639323-1.5890299.6241862-2.3041992.7807617-.7151692.1565756-1.4874674.2348633-2.3168945.2348633-1.2610677 0-2.2386068-.3660482-2.9326172-1.0981445-.6940104-.7320964-1.0621745-1.7794596-1.1044922-3.1420898h9.3564453v-1.6123047c0-1.9720052-.5374349-3.5208334-1.6123046-4.6464844-1.0748698-1.1256511-2.5390626-1.6884766-4.3925782-1.6884766-1.9973958 0-3.5673828.6559245-4.7099609 1.9677735-1.1425781 1.3118489-1.7138672 3.1145833-1.7138672 5.4082031 0 2.234375.6157227 3.988444 1.847168 5.262207s2.9389648 1.9106445 5.1225586 1.9106445zm2.5263671-8.7597656h-6.3730468c.110026-1.1510416.4506836-2.0270182 1.0219726-2.6279297.5712891-.6009114 1.330892-.9013671 2.2788086-.9013671.9479167 0 1.6927084.2983398 2.234375.8950195.5416667.5966797.8209636 1.4747721.8378906 2.6342773zm9.0556641 8.5058594v-19.75390625h-2.9833984v19.75390625zm6.9990235 6.2460938v-5.7509766c0-.2539063-.0592448-.9733073-.1777344-2.1582031h.1777344c.9817708 1.2779948 2.3613281 1.9169921 4.1386718 1.9169921 1.7519532 0 3.1251628-.6432291 4.1196289-1.9296874.9944662-1.2864584 1.4916993-3.0764974 1.4916993-5.3701172s-.4887696-4.0751954-1.4663086-5.3447266c-.9775391-1.2695312-2.3422852-1.9042969-4.0942383-1.9042969-1.8619792 0-3.2584636.7109375-4.1894531 2.1328125h-.1523438c-.2115885-.9902344-.351237-1.6165364-.4189453-1.8789062h-2.4121094v20.2871094zm3.4658203-8.4296876c-1.2272136 0-2.1116537-.3829752-2.6533203-1.1489257-.5416667-.7659506-.8125-2.0037435-.8125-3.7133789v-.444336c0-1.5234375.2729492-2.6321614.8188476-3.3261718.5458984-.6940105 1.4112956-1.0410157 2.5961914-1.0410157 1.0748698 0 1.8894857.4041341 2.4438477 1.2124024.5543619.8082682.8315429 1.9995117.8315429 3.5737304 0 1.5657552-.2792968 2.7718099-.8378906 3.6181641-.5585937.8463542-1.3541667 1.2695312-2.3867187 1.2695312zm12.8515625 2.1835938v-6.9443359h1.9296875c2.3444009 0 4.1513669-.5162761 5.4208979-1.5488282 1.269532-1.032552 1.904297-2.5179036 1.904297-4.4560547 0-1.84505203-.577636-3.24153641-1.73291-4.18945308-1.155273-.94791666-2.892415-1.421875-5.2114256-1.421875h-5.3447265v18.56054688zm1.6123046-9.4960938h-1.6123046v-6.52539058h2.1074218c1.3795573 0 2.3951826.2623698 3.0468746.78710938.651693.52473958.977539 1.3203125.977539 2.3867188 0 1.1510416-.363932 1.9973958-1.091796 2.5390624-.727865.5416667-1.8704431.8125-3.4277348.8125zm14.1845708 9.75c1.074869 0 1.955078-.1544596 2.640625-.4633789.685546-.3089192 1.366862-.8907877 2.043945-1.7456054h.101562l.59668 1.9550781h2.132813v-9.4580078c0-1.6673177-.454916-2.8902995-1.364747-3.6689453-.90983-.7786459-2.257649-1.1679688-4.043457-1.1679688-.804036 0-1.658854.1036784-2.564453.3110352s-1.739258.5099284-2.500976.9077148l.964844 2.1328125c.609374-.2877604 1.24414-.5374349 1.904296-.7490234.660157-.2115886 1.349935-.3173828 2.069336-.3173828.880209 0 1.529785.2221679 1.948731.6665039.418945.4443359.628418 1.1150716.628418 2.012207v.7490235l-2.424805.0761718c-2.200521.0677084-3.838216.4697266-4.913086 1.2060547s-1.612305 1.828125-1.612305 3.2753906c0 1.3626302.387207 2.4163412 1.161622 3.1611329.774414.7447916 1.851399 1.1171874 3.230957 1.1171874zm.939453-2.2851562c-.744792 0-1.303386-.1713867-1.675782-.5141602-.372395-.3427734-.558593-.8273112-.558593-1.4536132 0-.8632813.319498-1.5043946.958496-1.9233399.638997-.4189453 1.66097-.6538086 3.065918-.7045898l1.802734-.0761719v1.21875c0 1.0917969-.327962 1.9402669-.983887 2.5454102-.655924.6051432-1.525553.9077148-2.608886.9077148zm13.473633 2.03125v-19.75390625h-2.983399v19.75390625z" fill="#444" fill-rule="nonzero"/></g></svg>
