<svg height="32" viewBox="0 0 127 32" width="127" xmlns="http://www.w3.org/2000/svg" xmlns:xlink="http://www.w3.org/1999/xlink"><linearGradient id="a"><stop offset="0" stop-color="#6a5fdd"/><stop offset="1" stop-color="#241d8c"/></linearGradient><linearGradient id="b" x1="67.452373%" x2="-6.403408%" xlink:href="#a" y1="0%" y2="123.069803%"/><linearGradient id="c" x1="55.265819%" x2="32.981675%" xlink:href="#a" y1="0%" y2="123.069803%"/><linearGradient id="d" x1="67.45452%" x2="-6.410347%" xlink:href="#a" y1="0%" y2="123.069803%"/><linearGradient id="e" x1="55.265785%" x2="32.981785%" xlink:href="#a" y1="0%" y2="123.069803%"/><g fill="none" fill-rule="evenodd" transform="translate(0 -1)"><g transform="translate(0 1.5)"><path d="m9.76683698 4.28405534c0 1.44022081-1.14399998 2.60773329-2.55482853 2.60773329s-2.55451424-1.16751248-2.55451424-2.60773329 1.14368569-2.60805412 2.55451424-2.60805412 2.55482853 1.16783331 2.55482853 2.60805412" fill="url(#b)"/><path d="m9.2211427 26.0866371c3.2550571-4.8972 6.9881427-13.669104 4.2579428-26.0866371 0 0-.7332286 14.4127956-13.4790855 9.05937068 0 0 9.42259984 8.08467902 6.4720856 17.74689552l3.42257137-6.513879s-.35137142 3.0081332-.67351427 5.7942499" fill="url(#c)"/><path d="m21.0274111 4.28405534c0 1.44022081 1.144 2.60773329 2.5548285 2.60773329s2.5548285-1.16751248 2.5548285-2.60773329-1.144-2.60805412-2.5548285-2.60805412-2.5548285 1.16783331-2.5548285 2.60805412" fill="url(#d)"/><path d="m21.5734196 26.0866371c-3.2550571-4.8972-6.988457-13.669104-4.258257-26.0866371 0 0 .7335428 14.4127956 13.4790854 9.05937068 0 0-9.4225998 8.08467902-6.4720856 17.74689552l-3.4225713-6.513879s.3516857 3.0081332.6738285 5.7942499" fill="url(#e)"/></g><text fill="#444" font-family="OpenSans-SemiBold, Open Sans" font-size="26" font-weight="500" letter-spacing="-.25"><tspan x="33.5" y="28">HelpPal</tspan></text></g></svg>