<svg height="33" viewBox="0 0 130 33" width="130" xmlns="http://www.w3.org/2000/svg"><g fill="#fff" fill-rule="evenodd" transform="translate(0 -1)"><g transform="translate(0 1.5456)"><path d="m10.063749 4.41429073c0 1.48400355-1.17877756 2.68700844-2.63249533 2.68700844s-2.63217153-1.20300489-2.63217153-2.68700844c0-1.48400356 1.17845376-2.68733903 2.63217153-2.68733903s2.63249533 1.20333547 2.63249533 2.68733903"/><path d="m9.50146565 26.8796714c3.35401085-5.0460749 7.20058245-14.084645 4.38738435-26.8796714 0 0-.7555187 14.8509449-13.88885 9.33477576 0 0 9.70904709 8.33045344 6.66883716 18.28640154l3.52661764-6.7119011s-.36205315 3.0995806-.69398915 5.9703952"/><path d="m21.6666449 4.41429073c0 1.48400355 1.1787776 2.68700844 2.6324953 2.68700844 1.4537178 0 2.6324954-1.20300489 2.6324954-2.68700844 0-1.48400356-1.1787776-2.68733903-2.6324954-2.68733903-1.4537177 0-2.6324953 1.20333547-2.6324953 2.68733903"/><path d="m22.2292521 26.8796714c-3.3540109-5.0460749-7.2009063-14.084645-4.3877082-26.8796714 0 0 .7558426 14.8509449 13.88885 9.33477576 0 0-9.7090471 8.33045344-6.6688372 18.28640154l-3.5266176-6.7119011s.362377 3.0995806.694313 5.9703952"/></g><text font-family="OpenSans-SemiBold, Open Sans" font-size="26.790401" font-weight="500" letter-spacing="-.257600006"><tspan x="34.518401" y="29">HelpPal</tspan></text></g></svg>