<svg height="32" viewBox="0 0 130 32" width="130" xmlns="http://www.w3.org/2000/svg"><g fill="#fff" fill-rule="evenodd"><g transform="translate(0 .5456)"><path d="m10.063749 4.41429073c0 1.48400355-1.17877756 2.68700844-2.63249533 2.68700844s-2.63217153-1.20300489-2.63217153-2.68700844c0-1.48400356 1.17845376-2.68733903 2.63217153-2.68733903s2.63249533 1.20333547 2.63249533 2.68733903"/><path d="m9.50146565 26.8796714c3.35401085-5.0460749 7.20058245-14.084645 4.38738435-26.8796714 0 0-.7555187 14.8509449-13.88885 9.33477576 0 0 9.70904709 8.33045344 6.66883716 18.28640154l3.52661764-6.7119011s-.36205315 3.0995806-.69398915 5.9703952"/><path d="m21.6666449 4.41429073c0 1.48400355 1.1787776 2.68700844 2.6324953 2.68700844 1.4537178 0 2.6324954-1.20300489 2.6324954-2.68700844 0-1.48400356-1.1787776-2.68733903-2.6324954-2.68733903-1.4537177 0-2.6324953 1.20333547-2.6324953 2.68733903"/><path d="m22.2292521 26.8796714c-3.3540109-5.0460749-7.2009063-14.084645-4.3877082-26.8796714 0 0 .7558426 14.8509449 13.88885 9.33477576 0 0-9.7090471 8.33045344-6.6688372 18.28640154l-3.5266176-6.7119011s.362377 3.0995806.694313 5.9703952"/></g><path d="m40.1695009 25.4272007v-8.6205439h8.8167627v8.6205439h3.1395001v-19.12478792h-3.1395001v7.82258772h-8.8167627v-7.82258772h-3.1264188v19.12478792zm22.7261568.261625c.9854541 0 1.8618979-.0741271 2.6293313-.2223812.7674333-.1482542 1.5261458-.4011584 2.2761375-.7587126v-2.4985188c-.8459208.3749959-1.6373365.6431615-2.3742469.8044969s-1.5326865.2420032-2.3873282.2420032c-1.2994042 0-2.3066605-.3771761-3.0217688-1.1315282-.7151084-.7543521-1.0944646-1.8335552-1.1380688-3.2376094h9.6408815v-1.6613188c0-2.0319542-.5537729-3.6278668-1.6613188-4.7877376-1.1075459-1.1598709-2.6162501-1.7398063-4.5261126-1.7398063-2.0581167 0-3.6758313.6758646-4.8531439 2.0275938-1.1773125 1.3517292-1.7659688 3.2092667-1.7659688 5.5726126 0 2.3023.6344407 4.1096928 1.903322 5.4221782 1.2688812 1.3124855 3.0283094 1.9687282 5.2782845 1.9687282zm2.6031688-9.0260627h-6.5667877c.1133709-1.1860334.4643844-2.0886396 1.0530407-2.7078188.5886562-.6191792 1.371351-.9287688 2.3480844-.9287688s1.7441667.3074094 2.3023.9222282c.5581334.6148187.8459209 1.5196052.8633626 2.7143594zm9.3309564 8.7644377v-20.35442545h-3.0740938v20.35442545zm7.2117939 6.4359751v-5.9258063c0-.261625-.0610458-1.0028959-.1831375-2.2238126h.1831375c1.0116167 1.3168459 2.4331126 1.9752688 4.2644876 1.9752688 1.8052126 0 3.2201678-.6627833 4.2448658-1.98835 1.0246979-1.3255667 1.5370469-3.170023 1.5370469-5.5333689s-.5036282-4.1990814-1.5108844-5.5072064c-1.0072563-1.308125-2.4134907-1.9621875-4.2187033-1.9621875-1.9185833 0-3.3575209.73255-4.3168126 2.19765h-.156975c-.2180208-1.0203375-.3619146-1.6656792-.4316812-1.936025h-2.4854376v20.9038379zm3.5711814-8.6859501c-1.2645209 0-2.175848-.3946178-2.7339813-1.1838532-.5581334-.7892354-.8372001-2.0646573-.8372001-3.8262657v-.4578438c0-1.56975.2812469-2.7121792.8437407-3.4272875.5624937-.7151084 1.454199-1.0726626 2.6751157-1.0726626 1.1075458 0 1.9469261.4164198 2.5181406 1.2492594.5712146.8328396.8568219 2.060297.8568219 3.682372 0 1.6133542-.2877875 2.856073-.8633625 3.7281563-.575575.8720834-1.3953333 1.3081251-2.459275 1.3081251zm13.2422503 2.249975v-7.1554439h1.9883505c2.41567 0 4.277568-.5319709 5.585693-1.5959125 1.308125-1.0639417 1.962188-2.594448 1.962188-4.5915189 0-1.9011417-.595197-3.34007924-1.785591-4.31681259-1.190394-.97673336-2.980345-1.46510003-5.369853-1.46510003h-5.5072064v19.12478792zm1.6613185-9.7847752h-1.6613185v-6.72376267h2.1714875c1.421496 0 2.467996.27034584 3.1395.81103752.671504.54069165 1.007256 1.36045005 1.007256 2.45927505 0 1.1860334-.374995 2.0581167-1.124987 2.6162501-.749992.5581333-1.927304.8372-3.531938.8372zm14.615782 10.0464002c1.107546 0 2.014512-.1591552 2.7209-.4774656.706387-.3183104 1.408415-.9178678 2.106081-1.7986719h.10465l.614819 2.0145125h2.19765v-9.7455315c0-1.7180042-.468745-2.9781646-1.406234-3.7804813-.93749-.8023167-2.326283-1.203475-4.166379-1.203475-.828479 0-1.709283.1068302-2.642412.3204906s-1.792131.5254302-2.577006.9353094l.994175 2.1976501c.6279-.2965084 1.281962-.553773 1.962187-.7717938.680225-.2180209 1.390973-.3270313 2.132244-.3270313.906967 0 1.576291.2289219 2.007972.6867657.431681.4578437.647522 1.1489698.647522 2.0733781v.7717938l-2.498519.0784875c-2.267417.0697667-3.954898.4840063-5.062444 1.2427188s-1.661319 1.8837-1.661319 3.3749626c0 1.4040542.398978 2.4897979 1.196935 3.2572313.797956.7674333 1.907682 1.15115 3.329178 1.15115zm.968012-2.354625c-.767433 0-1.343008-.1765969-1.726725-.5297907-.383716-.3531937-.575575-.8524615-.575575-1.4978031 0-.8895251.329212-1.5501282.987635-1.9818095.658423-.4316812 1.711463-.6736843 3.159122-.7260093l1.857537-.0784876v1.2558001c0 1.1249875-.337932 1.9992511-1.013797 2.6227907-.675864.6235396-1.57193.9353094-2.688197.9353094zm13.883232 2.093v-20.35442545h-3.074094v20.35442545z" fill-rule="nonzero"/></g></svg>