<?xml version="1.0" standalone="no"?>
<!DOCTYPE svg PUBLIC "-//W3C//DTD SVG 20010904//EN"
 "http://www.w3.org/TR/2001/REC-SVG-20010904/DTD/svg10.dtd">
<svg version="1.0" xmlns="http://www.w3.org/2000/svg"
 width="601.000000pt" height="601.000000pt" viewBox="0 0 601.000000 601.000000"
 preserveAspectRatio="xMidYMid meet">
<metadata>
Created by potrace 1.15, written by Peter Selinger 2001-2017
</metadata>
<g transform="translate(0.000000,601.000000) scale(0.100000,-0.100000)"
fill="#000000" stroke="none">
<path d="M4593 5042 l-1203 -2 0 -385 0 -386 73 3 72 3 5 305 5 305 1058 3
1057 2 0 -1930 0 -1930 -637 -2 -638 -3 -3 -77 -3 -78 721 0 720 0 0 2084 c0
1659 -3 2085 -12 2087 -7 2 -554 3 -1215 1z"/>
<path d="M2902 4572 l-72 -3 2 -812 3 -812 100 0 100 0 3 811 2 812 -32 3
c-18 2 -66 3 -106 1z"/>
<path d="M202 3718 l3 -773 100 0 100 0 5 360 5 360 354 3 c241 1 358 -1 365
-8 7 -7 12 -131 13 -363 l2 -352 98 0 98 0 3 773 2 772 -102 0 -103 0 4 -313
c3 -266 1 -315 -12 -325 -11 -9 -101 -12 -368 -10 l-354 3 -3 323 -2 322 -105
0 -105 0 2 -772z"/>
<path d="M2003 4066 c-122 -30 -238 -114 -301 -219 -75 -124 -112 -304 -93
-446 31 -231 146 -383 341 -451 81 -28 243 -37 350 -21 90 14 207 48 216 62 5
8 -23 149 -31 149 -1 0 -28 -10 -61 -21 -83 -30 -309 -39 -382 -15 -136 45
-223 161 -234 311 l-3 40 385 5 385 5 3 105 c2 90 -1 117 -23 187 -67 215
-217 325 -439 322 -33 0 -84 -6 -113 -13z m234 -164 c79 -41 133 -128 141
-229 l5 -63 -288 0 -288 0 6 33 c20 122 110 241 203 271 63 20 168 14 221 -12z"/>
<path d="M3833 4070 c-73 -15 -155 -61 -216 -122 -32 -32 -60 -58 -63 -58 -2
0 -4 36 -4 80 l0 80 -95 0 -95 0 0 -1579 c0 -1323 2 -1580 14 -1590 9 -8 123
-10 402 -9 l389 3 0 75 0 75 -297 3 -298 2 0 1020 c0 561 4 1020 8 1020 4 0
23 -16 41 -35 119 -126 341 -151 524 -59 70 36 166 135 201 209 46 96 55 130
68 247 10 94 10 123 -4 206 -53 312 -287 488 -575 432z m212 -205 c102 -69
151 -166 162 -321 14 -199 -59 -363 -189 -428 -68 -34 -180 -36 -262 -6 -63
24 -126 87 -159 158 -20 42 -22 63 -22 217 1 153 3 176 23 227 28 70 89 135
162 172 50 25 63 27 141 24 80 -4 89 -6 144 -43z"/>
<path d="M5142 2783 l3 -108 45 0 45 0 3 58 3 57 139 0 140 0 0 50 0 50 -190
0 -191 0 3 -107z"/>
<path d="M1245 2429 c-49 -5 -100 -11 -113 -14 l-22 -5 2 -763 3 -762 100 0
100 0 3 301 2 300 118 -4 c352 -12 590 152 624 429 30 250 -96 440 -337 505
-73 19 -348 27 -480 13z m340 -159 c136 -20 229 -90 260 -196 49 -169 -27
-334 -181 -395 -46 -17 -85 -23 -177 -27 -64 -2 -128 -1 -142 2 l-25 6 2 303
3 302 75 6 c41 3 84 6 95 7 11 1 52 -3 90 -8z"/>
<path d="M2515 2014 c-111 -17 -255 -77 -255 -106 0 -19 28 -98 40 -111 4 -5
26 1 49 12 68 35 167 53 263 49 78 -4 93 -8 130 -34 54 -38 90 -106 92 -176
l1 -53 -110 -8 c-217 -15 -378 -75 -459 -171 -52 -61 -65 -85 -82 -149 -28
-107 13 -259 88 -322 94 -79 232 -106 364 -70 61 16 169 81 187 111 18 31 35
13 43 -43 l9 -58 90 0 90 0 -2 30 c-1 17 -5 194 -8 395 -8 417 -15 462 -86
557 -77 103 -160 142 -318 148 -53 2 -109 1 -126 -1z m325 -689 c0 -66 -5
-126 -12 -142 -22 -51 -79 -113 -128 -138 -170 -86 -337 6 -317 176 11 94 78
164 186 196 51 15 245 33 264 25 4 -2 7 -54 7 -117z"/>
</g>
</svg>
