<svg height="27" viewBox="0 0 21 27" width="21" xmlns="http://www.w3.org/2000/svg"><g fill="#584ec8" fill-rule="evenodd"><g transform="translate(0 2)"><path d="m0 3.5h8v2h-8z"/><path d="m0 3.5h8v2h-8z" transform="matrix(0 1 -1 0 8.5 .5)"/></g><g transform="translate(6)"><path d="m9.58068893 4.2024047c0 1.41277136-1.12219626 2.55803199-2.50613555 2.55803199-1.3839393 0-2.50582726-1.14526063-2.50582726-2.55803199s1.12188796-2.55834671 2.50582726-2.55834671c1.38393929 0 2.50613555 1.14557535 2.50613555 2.55834671"/><path d="m9.04539515 25.5894468c3.19301835-4.8038633 6.85495435-13.4085819 4.17678985-25.5894468 0 0-.7192538 14.1380993-13.222185 8.88670637 0 0 9.24301267 7.93059153 6.34873286 17.40865403l3.35733992-6.3897298s-.34467457 2.9508007-.66067763 5.6838162"/></g></g></svg>