<svg height="22" viewBox="0 0 22 22" width="22" xmlns="http://www.w3.org/2000/svg"><g fill="#584ec8"><path d="m10.752 21.504c-2.8728 0-5.5734-1.1172-7.602-3.15s-3.15-4.7292-3.15-7.602 1.1172-5.5734 3.15-7.602 4.7292-3.15 7.602-3.15c2.037 0 4.0194.5712 5.7372 1.6548 1.2054.7602 2.2386 1.7472 3.0534 2.9022v-3.5322c0-.2436.1974-.441.441-.441s.441.1974.441.441v5.1366c0 .2058-.1428.3822-.3402.4326-.2016.0462-.4074-.0504-.4998-.2352-1.68-3.3768-5.0652-5.4726-8.8326-5.4726-5.439 0-9.8658 4.4268-9.8658 9.8658s4.4268 9.8658 9.8658 9.8658 9.8658-4.4268 9.8658-9.8658c0-.2436.1974-.441.441-.441s.441.1974.441.441c0 2.8728-1.1172 5.5734-3.15 7.602s-4.725 3.15-7.5978 3.15z"/><path d="m19.9416 6.6444h-4.9266c-.2436 0-.441-.1974-.441-.441s.1974-.441.441-.441h4.9266c.2436 0 .441.1974.441.441s-.1974.441-.441.441z"/></g></svg>